<svg xmlns="http://www.w3.org/2000/svg" xmlns:xlink="http://www.w3.org/1999/xlink" viewBox="0 0 494.94 181.02"><defs><style>.cls-1{mask:url(#mask);filter:url(#luminosity-noclip-3);}.cls-2,.cls-4{mix-blend-mode:multiply;}.cls-2{fill:url(#linear-gradient);}.cls-3{mask:url(#mask-2);filter:url(#luminosity-noclip-4);}.cls-4{fill:url(#linear-gradient-2);}.cls-5{fill:none;stroke:#29abe2;stroke-miterlimit:10;stroke-width:1.03px;}.cls-6{fill:#29abe2;}.cls-7{fill:url(#linear-gradient-3);}.cls-8{fill:url(#linear-gradient-4);}.cls-9{fill:#f04a24;}.cls-10{mask:url(#mask-3);}.cls-11{fill:url(#linear-gradient-5);}.cls-12{mask:url(#mask-4);}.cls-13{fill:url(#linear-gradient-6);}.cls-14{font-size:32.81px;fill:#fff;font-family:Montserrat-ExtraBold, Montserrat;font-weight:800;}.cls-15{filter:url(#luminosity-noclip-2);}.cls-16{filter:url(#luminosity-noclip);}</style><filter id="luminosity-noclip" x="109.12" y="-8168.74" width="28.71" height="32766" filterUnits="userSpaceOnUse" color-interpolation-filters="sRGB"><feFlood flood-color="#fff" result="bg"/><feBlend in="SourceGraphic" in2="bg"/></filter><mask id="mask" x="109.12" y="-8168.74" width="28.71" height="32766" maskUnits="userSpaceOnUse"><g class="cls-16"/></mask><linearGradient id="linear-gradient" x1="131.23" y1="113.33" x2="143" y2="125.09" gradientTransform="matrix(1, -0.01, 0.01, 1.26, -14.81, -143.4)" gradientUnits="userSpaceOnUse"><stop offset="0" stop-color="#fff"/><stop offset="0.15" stop-color="#d4d4d4"/><stop offset="0.57" stop-color="#636363"/><stop offset="0.87" stop-color="#1c1c1c"/><stop offset="1"/></linearGradient><filter id="luminosity-noclip-2" x="356.63" y="-8168.74" width="28.8" height="32766" filterUnits="userSpaceOnUse" color-interpolation-filters="sRGB"><feFlood flood-color="#fff" result="bg"/><feBlend in="SourceGraphic" in2="bg"/></filter><mask id="mask-2" x="356.63" y="-8168.74" width="28.8" height="32766" maskUnits="userSpaceOnUse"><g class="cls-15"/></mask><linearGradient id="linear-gradient-2" x1="376.19" y1="111.26" x2="393.18" y2="128.25" xlink:href="#linear-gradient"/><linearGradient id="linear-gradient-3" x1="247.59" y1="31.3" x2="247.59" y2="178.61" gradientUnits="userSpaceOnUse"><stop offset="0" stop-color="aqua"/><stop offset="1" stop-color="aqua" stop-opacity="0"/></linearGradient><linearGradient id="linear-gradient-4" x1="182.18" y1="62.38" x2="339.61" y2="219.81" gradientTransform="matrix(1, -0.01, 0.01, 1.26, -14.81, -143.4)" gradientUnits="userSpaceOnUse"><stop offset="0" stop-color="#f04a24"/><stop offset="0.66" stop-color="#ee8913"/><stop offset="1" stop-color="#eda50c"/></linearGradient><filter id="luminosity-noclip-3" x="109.12" y="2.1" width="28.71" height="6.8" filterUnits="userSpaceOnUse" color-interpolation-filters="sRGB"><feFlood flood-color="#fff" result="bg"/><feBlend in="SourceGraphic" in2="bg"/></filter><mask id="mask-3" x="109.12" y="2.1" width="28.71" height="6.8" maskUnits="userSpaceOnUse"><g class="cls-1"><polygon class="cls-2" points="137.82 2.1 132.65 8.72 109.12 8.9 114.29 2.28 137.82 2.1"/></g></mask><linearGradient id="linear-gradient-5" x1="131.23" y1="113.33" x2="143" y2="125.09" gradientTransform="matrix(1, -0.01, 0.01, 1.26, -14.81, -143.4)" gradientUnits="userSpaceOnUse"><stop offset="0" stop-color="#eda50c"/><stop offset="1" stop-color="#eda50c"/></linearGradient><filter id="luminosity-noclip-4" x="356.63" y="0.89" width="28.8" height="6.72" filterUnits="userSpaceOnUse" color-interpolation-filters="sRGB"><feFlood flood-color="#fff" result="bg"/><feBlend in="SourceGraphic" in2="bg"/></filter><mask id="mask-4" x="356.63" y="0.89" width="28.8" height="6.72" maskUnits="userSpaceOnUse"><g class="cls-3"><polygon class="cls-4" points="385.44 7.43 361.91 7.61 356.63 1.08 380.16 0.89 385.44 7.43"/></g></mask><linearGradient id="linear-gradient-6" x1="376.19" y1="111.26" x2="393.18" y2="128.25" xlink:href="#linear-gradient-5"/></defs><g id="Layer_2" data-name="Layer 2"><g id="Layer_1-2" data-name="Layer 1"><polyline class="cls-5" points="247.59 177.39 26.37 177.49 2.98 158.44 2.98 53.22 21.5 33.09 247.59 31.89"/><polygon class="cls-6" points="5.35 160.37 11.06 159.6 24.28 170.36 24.28 175.79 5.35 160.37"/><polygon class="cls-6" points="20.01 34.56 20.01 39.04 9.01 51 4.67 51.59 20.01 34.56"/><ellipse class="cls-6" cx="2.85" cy="66.32" rx="3" ry="2.58" transform="translate(-39.4 15.12) rotate(-37.07)"/><ellipse class="cls-6" cx="2.85" cy="146.75" rx="3" ry="2.58" transform="matrix(0.8, -0.6, 0.6, 0.8, -87.88, 31.38)"/><ellipse class="cls-6" cx="38.2" cy="175.88" rx="3" ry="2.58" transform="translate(-98.3 58.57) rotate(-37.07)"/><ellipse class="cls-6" cx="34.16" cy="31.36" rx="3" ry="2.58" transform="translate(-12 26.93) rotate(-37.07)"/><polygon class="cls-6" points="2.98 76.42 7.26 78.84 7.26 124.1 3.5 126.94 2.98 76.42"/><polyline class="cls-5" points="247.35 177.39 468.57 176.67 491.96 151.24 491.96 45.82 473.44 30.74 247.35 31.93"/><polygon class="cls-6" points="489.58 153.82 483.87 154.6 470.65 168.97 470.65 174.4 489.58 153.82"/><polygon class="cls-6" points="474.92 31.8 474.92 36.28 485.93 45.24 490.27 44.65 474.92 31.8"/><ellipse class="cls-6" cx="492.08" cy="58.88" rx="3" ry="2.58" transform="translate(63.96 308.52) rotate(-37.07)"/><ellipse class="cls-6" cx="492.08" cy="135.41" rx="3" ry="2.58" transform="matrix(0.8, -0.6, 0.6, 0.8, 17.82, 323.99)"/><ellipse class="cls-6" cx="456.73" cy="178.28" rx="3" ry="2.58" transform="translate(-15.16 311.35) rotate(-37.07)"/><ellipse class="cls-6" cx="460.77" cy="32.46" rx="3" ry="2.58" transform="translate(73.55 284.31) rotate(-37.07)"/><polygon class="cls-6" points="491.96 76.08 487.67 79.32 487.67 124.8 491.44 126.94 491.96 76.08"/><path class="cls-7" d="M469.29,177.63l-443.4,1L3.49,160.37V56.84l22.4-24.35,443.4-1.19,22.4,18.24V153.28Z"/><polygon class="cls-6" points="177.3 32.94 183.07 39.1 265 38.52 265.84 32.63 177.3 32.94"/><polygon class="cls-6" points="169.82 177.4 176.36 172.07 248.88 172.13 248.11 177.24 169.82 177.4"/><polygon class="cls-6" points="354.22 31.67 346.68 37.93 264.75 38.52 265.59 32.64 354.22 31.67"/><polygon class="cls-6" points="326.09 177.54 321.16 172.2 248.64 172.13 247.87 177.23 326.09 177.54"/><polygon class="cls-8" points="404.62 31.18 380.13 62.49 115.28 63.87 90.31 32.95 109.12 8.9 132.65 8.72 137.82 2.1 356.63 1.08 361.91 7.61 385.44 7.43 404.62 31.18"/><path class="cls-9" d="M380.43,63.38,115,64.77,89.3,33,108.82,8l23.53-.18,5.17-6.62,219.4-1,5.28,6.54,23.52-.18,19.9,24.63ZM115.57,63,379.83,61.6l23.79-30.41L385.15,8.32l-23.52.19L356.35,2,138.12,3,133,9.6l-23.53.19L91.31,32.94Z"/><g class="cls-10"><polygon class="cls-11" points="137.82 2.1 132.65 8.72 109.12 8.9 114.29 2.28 137.82 2.1"/></g><path class="cls-9" d="M133,9.6l-25.54.2L114,1.39l25.54-.2ZM110.82,8l21.53-.16L136.12,3l-21.53.17Z"/><polygon class="cls-9" points="133.26 70.56 111.16 70.73 80.77 33.1 100.34 8.08 109.11 8.01 109.12 9.79 100.94 9.85 82.77 33.09 111.73 68.94 133.24 68.78 133.26 70.56"/><g class="cls-12"><polygon class="cls-13" points="385.44 7.43 361.91 7.61 356.63 1.08 380.16 0.89 385.44 7.43"/></g><path class="cls-9" d="M387.15,8.31l-25.52.2L354.92.2,380.45,0ZM362.2,6.72l21.52-.17-3.85-4.76L358.35,2Z"/><polygon class="cls-9" points="384.37 69.28 362.27 69.46 362.25 67.67 383.76 67.51 412.16 31.2 393.63 8.26 385.44 8.32 385.43 6.54 394.2 6.47 414.17 31.19 384.37 69.28"/><text class="cls-14" transform="translate(150.69 45.07)">HỌ VÀ TÊN</text></g></g></svg>